<?xml version="1.0" encoding="UTF-8" standalone="no"?>
<!-- Created with Inkscape (http://www.inkscape.org/) -->

<svg
   width="512"
   height="63.999996"
   viewBox="0 0 135.46666 16.933332"
   version="1.1"
   id="svg1"
   xmlns="http://www.w3.org/2000/svg"
   xmlns:svg="http://www.w3.org/2000/svg">
  <defs
     id="defs1" />
  <g
     id="layer1">
    <g
       id="g3044">
      <g
         style="font-weight:600;font-size:6.35px;font-family:'Chakra Petch';-inkscape-font-specification:'Chakra Petch Semi-Bold';text-align:center;text-anchor:middle;fill:#000000;fill-opacity:1;stroke:#000000;stroke-width:0.264583"
         id="g3043">
        <path
           d="m 5.37636,5.59012 h 0.6985 l 0.70711,0.7071 h -0.6985 z"
           id="path2436" />
        <path
           d="M 6.07486,5.59012 7.68141,10.0351 8.38852,10.7422 6.78197,6.29722 Z"
           id="path2437" />
        <path
           d="m 7.68141,10.0351 h -0.7493 l 0.70711,0.7071 h 0.7493 z"
           id="path2438" />
        <path
           d="m 6.93211,10.0351 -0.381,-1.05408 0.70711,0.7071 0.381,1.05408 z"
           id="path2439" />
        <path
           d="M 6.55111,8.98102 H 4.89376 l 0.70711,0.7071 h 1.65735 z"
           id="path2440" />
        <path
           d="m 4.89376,8.98102 -0.381,1.05408 0.70711,0.7071 0.381,-1.05408 z"
           id="path2441" />
        <path
           d="m 4.51276,10.0351 h -0.7493 l 0.70711,0.7071 h 0.7493 z"
           id="path2442" />
        <path
           d="m 3.76346,10.0351 1.6129,-4.44498 0.70711,0.7071 -1.6129,4.44498 z"
           id="path2443" />
        <path
           d="m 6.37966,8.36507 -0.65405,-1.8796 0.70711,0.7071 0.65405,1.8796 z"
           id="path2444" />
        <path
           d="m 5.72561,6.48547 h -0.0127 l 0.70711,0.7071 h 0.0127 z"
           id="path2445" />
        <path
           d="m 5.71291,6.48547 -0.64135,1.8796 0.70711,0.7071 0.64135,-1.8796 z"
           id="path2446" />
        <path
           d="m 5.07156,8.36507 h 1.3081 l 0.70711,0.7071 h -1.3081 z"
           id="path2447" />
        <path
           d="m 8.15766,6.87282 h 0.66675 l 0.7071,0.7071 H 8.86476 Z"
           id="path2448" />
        <path
           d="m 8.82441,6.87282 v 0.4953 l 0.7071,0.7071 v -0.4953 z"
           id="path2449" />
        <path
           d="m 8.82441,7.36812 0.50165,-0.4953 0.70714,0.7071 -0.50169,0.4953 z"
           id="path2450" />
        <path
           d="m 9.32606,6.87282 h 1.21284 l 0.7071,0.7071 h -1.2128 z"
           id="path2451" />
        <path
           d="m 10.5389,6.87282 0.635,0.635 0.7071,0.7071 -0.635,-0.635 z"
           id="path2452" />
        <path
           d="m 11.1739,7.50782 v 1.8923 L 11.881,10.1072 V 8.21492 Z"
           id="path2453" />
        <path
           d="m 11.1739,9.40012 -0.635,0.63498 0.7071,0.7071 0.635,-0.635 z"
           id="path2454" />
        <path
           d="M 10.5389,10.0351 H 9.31971 l 0.70709,0.7071 h 1.2192 z"
           id="path2455" />
        <path
           d="m 9.31971,10.0351 -0.4445,-0.37463 0.7071,0.70713 0.44449,0.3746 z"
           id="path2456" />
        <path
           d="m 8.87521,9.66047 v 1.72083 l 0.7071,0.7071 v -1.7208 z"
           id="path2457" />
        <path
           d="M 8.87521,11.3813 H 8.15766 l 0.7071,0.7071 h 0.71755 z"
           id="path2458" />
        <path
           d="M 8.15766,11.3813 V 6.87282 l 0.7071,0.7071 v 4.50848 z"
           id="path2459" />
        <path
           d="m 10.2024,9.41917 0.254,-0.24765 0.7071,0.7071 -0.254,0.24768 z"
           id="path2460" />
        <path
           d="m 10.4564,9.17152 v -1.4351 l 0.7071,0.7071 v 1.4351 z"
           id="path2461" />
        <path
           d="m 10.4564,7.73642 -0.254,-0.24765 0.7071,0.7071 0.254,0.24765 z"
           id="path2462" />
        <path
           d="M 10.2024,7.48877 H 9.44036 l 0.70714,0.7071 h 0.762 z"
           id="path2463" />
        <path
           d="M 9.44036,7.48877 8.87521,8.05392 9.58231,8.76102 10.1475,8.19587 Z"
           id="path2464" />
        <path
           d="m 8.87521,8.05392 v 0.88265 l 0.7071,0.7071 V 8.76102 Z"
           id="path2465" />
        <path
           d="M 8.87521,8.93657 9.40861,9.41917 10.1157,10.1263 9.58231,9.64367 Z"
           id="path2466" />
        <path
           d="m 9.40861,9.41917 h 0.79379 l 0.7071,0.70713 h -0.7938 z"
           id="path2467" />
        <path
           d="m 11.9359,6.87282 h 0.6668 l 0.7071,0.7071 H 12.643 Z"
           id="path2468" />
        <path
           d="m 12.6027,6.87282 v 0.53975 l 0.7071,0.7071 V 7.57992 Z"
           id="path2469" />
        <path
           d="m 12.6027,7.41257 0.527,-0.53975 0.7071,0.7071 -0.527,0.53975 z"
           id="path2470" />
        <path
           d="m 13.1297,6.87282 h 0.8763 l 0.7071,0.7071 h -0.8763 z"
           id="path2471" />
        <path
           d="m 14.006,6.87282 v 0.61595 l 0.7071,0.7071 V 7.57992 Z"
           id="path2472" />
        <path
           d="m 14.006,7.48877 h -0.7175 l 0.7071,0.7071 h 0.7175 z"
           id="path2473" />
        <path
           d="m 13.2885,7.48877 -0.635,0.6477 0.7071,0.7071 0.635,-0.6477 z"
           id="path2474" />
        <path
           d="m 12.6535,8.13647 v 1.89863 l 0.7071,0.7071 V 8.84357 Z"
           id="path2475" />
        <path
           d="m 12.6535,10.0351 h -0.7176 l 0.7071,0.7071 h 0.7176 z"
           id="path2476" />
        <path
           d="M 11.9359,10.0351 V 6.87282 l 0.7071,0.7071 v 3.16228 z"
           id="path2477" />
        <path
           d="M 14.26,9.40647 V 7.50782 l 0.7071,0.7071 v 1.89868 z"
           id="path2478" />
        <path
           d="m 14.26,7.50782 0.6287,-0.635 0.7071,0.7071 -0.6287,0.635 z"
           id="path2479" />
        <path
           d="m 14.8887,6.87282 h 1.7208 l 0.7071,0.7071 h -1.7208 z"
           id="path2480" />
        <path
           d="m 16.6095,6.87282 0.6414,0.635 0.7071,0.7071 -0.6414,-0.635 z"
           id="path2481" />
        <path
           d="m 17.2509,7.50782 v 1.1811 l 0.7071,0.7071 v -1.1811 z"
           id="path2482" />
        <path
           d="m 17.2509,8.68892 h -2.2733 l 0.7071,0.7071 h 2.2733 z"
           id="path2483" />
        <path
           d="m 14.9776,8.68892 v 0.508 l 0.7071,0.7071 v -0.508 z"
           id="path2484" />
        <path
           d="m 14.9776,9.19692 0.2413,0.2413 0.7071,0.70708 -0.2413,-0.24128 z"
           id="path2485" />
        <path
           d="m 15.2189,9.43822 h 1.0858 l 0.7071,0.70708 H 15.926 Z"
           id="path2486" />
        <path
           d="m 16.3047,9.43822 0.2286,-0.23495 0.7071,0.7071 -0.2286,0.23493 z"
           id="path2487" />
        <path
           d="m 16.5333,9.20327 v -0.1905 l 0.7071,0.7071 v 0.1905 z"
           id="path2488" />
        <path
           d="m 16.5333,9.01277 h 0.7112 l 0.7071,0.7071 h -0.7112 z"
           id="path2489" />
        <path
           d="m 17.2445,9.01277 v 0.4064 l 0.7071,0.70713 V 9.71987 Z"
           id="path2490" />
        <path
           d="m 17.2445,9.41917 -0.6159,0.61593 0.7071,0.7071 0.6159,-0.6159 z"
           id="path2491" />
        <path
           d="m 16.6286,10.0351 h -1.7463 l 0.7071,0.7071 h 1.7463 z"
           id="path2492" />
        <path
           d="M 14.8823,10.0351 14.26,9.40647 l 0.7071,0.70713 0.6223,0.6286 z"
           id="path2493" />
        <path
           d="M 16.5333,8.16187 V 7.72372 l 0.7071,0.7071 v 0.43815 z"
           id="path2494" />
        <path
           d="m 16.5333,7.72372 -0.2476,-0.254 0.7071,0.7071 0.2476,0.254 z"
           id="path2495" />
        <path
           d="m 16.2857,7.46972 h -1.0605 l 0.7071,0.7071 h 1.0605 z"
           id="path2496" />
        <path
           d="m 15.2252,7.46972 -0.2476,0.254 0.7071,0.7071 0.2476,-0.254 z"
           id="path2497" />
        <path
           d="m 14.9776,7.72372 v 0.43815 l 0.7071,0.7071 V 8.43082 Z"
           id="path2498" />
        <path
           d="m 14.9776,8.16187 h 1.5557 l 0.7071,0.7071 h -1.5557 z"
           id="path2499" />
        <path
           d="m 17.9811,6.87282 h 0.6668 l 0.7071,0.7071 h -0.6668 z"
           id="path2500" />
        <path
           d="m 18.6479,6.87282 v 0.57785 l 0.7071,0.7071 V 7.57992 Z"
           id="path2501" />
        <path
           d="m 18.6479,7.45067 0.5778,-0.57785 0.7071,0.7071 -0.5778,0.57785 z"
           id="path2502" />
        <path
           d="m 19.2257,6.87282 h 1.0033 l 0.7071,0.7071 h -1.0033 z"
           id="path2503" />
        <path
           d="m 20.229,6.87282 0.6668,0.66675 0.7071,0.7071 -0.6668,-0.66675 z"
           id="path2504" />
        <path
           d="m 20.8958,7.53957 v 2.49553 l 0.7071,0.7071 V 8.24667 Z"
           id="path2505" />
        <path
           d="m 20.8958,10.0351 h -0.7176 l 0.7071,0.7071 h 0.7176 z"
           id="path2506" />
        <path
           d="M 20.1782,10.0351 V 7.73642 l 0.7071,0.7071 v 2.29868 z"
           id="path2507" />
        <path
           d="m 20.1782,7.73642 -0.2476,-0.24765 0.7071,0.7071 0.2476,0.24765 z"
           id="path2508" />
        <path
           d="m 19.9306,7.48877 h -0.5715 l 0.7071,0.7071 h 0.5715 z"
           id="path2509" />
        <path
           d="m 19.3591,7.48877 -0.6604,0.66675 0.7071,0.7071 0.6604,-0.66675 z"
           id="path2510" />
        <path
           d="m 18.6987,8.15552 v 1.87958 l 0.7071,0.7071 V 8.86262 Z"
           id="path2511" />
        <path
           d="m 18.6987,10.0351 h -0.7176 l 0.7071,0.7071 h 0.7176 z"
           id="path2512" />
        <path
           d="M 17.9811,10.0351 V 6.87282 l 0.7071,0.7071 v 3.16228 z"
           id="path2513" />
        <path
           d="m 21.626,9.40012 v -1.8923 l 0.7071,0.7071 v 1.89228 z"
           id="path2514" />
        <path
           d="m 21.626,7.50782 0.6286,-0.635 0.7072,0.7071 -0.6287,0.635 z"
           id="path2515" />
        <path
           d="m 22.2546,6.87282 h 1.2446 l 0.7072,0.7071 h -1.2446 z"
           id="path2516" />
        <path
           d="m 23.4992,6.87282 0.4255,0.3683 0.7071,0.7071 -0.4254,-0.3683 z"
           id="path2517" />
        <path
           d="m 23.9247,7.24112 v -1.7399 l 0.7071,0.7071 v 1.7399 z"
           id="path2518" />
        <path
           d="m 23.9247,5.50122 h 0.7175 l 0.7072,0.7071 h -0.7176 z"
           id="path2519" />
        <path
           d="m 24.6422,5.50122 v 4.53388 l 0.7072,0.7071 V 6.20832 Z"
           id="path2520" />
        <path
           d="m 24.6422,10.0351 h -0.6794 l 0.7071,0.7071 h 0.6795 z"
           id="path2521" />
        <path
           d="M 23.9628,10.0351 V 9.51442 l 0.7071,0.70708 v 0.5207 z"
           id="path2522" />
        <path
           d="m 23.9628,9.51442 -0.5207,0.52068 0.7071,0.7071 0.5207,-0.5207 z"
           id="path2523" />
        <path
           d="m 23.4421,10.0351 h -1.1874 l 0.7071,0.7071 h 1.1874 z"
           id="path2524" />
        <path
           d="m 22.2547,10.0351 -0.6287,-0.63498 0.7071,0.70708 0.6287,0.635 z"
           id="path2525" />
        <path
           d="m 23.3595,9.41917 0.5652,-0.5715 0.7071,0.7071 -0.5651,0.57153 z"
           id="path2526" />
        <path
           d="m 23.9247,8.84767 v -0.9271 l 0.7071,0.7071 v 0.9271 z"
           id="path2527" />
        <path
           d="m 23.9247,7.92057 -0.489,-0.4318 0.7072,0.7071 0.4889,0.4318 z"
           id="path2528" />
        <path
           d="m 23.4357,7.48877 h -0.8255 l 0.7072,0.7071 h 0.8255 z"
           id="path2529" />
        <path
           d="m 22.6102,7.48877 -0.2667,0.2667 0.7072,0.7071 0.2667,-0.2667 z"
           id="path2530" />
        <path
           d="m 22.3435,7.75547 v 1.397 l 0.7072,0.7071 v -1.397 z"
           id="path2531" />
        <path
           d="m 22.3435,9.15247 0.2667,0.2667 0.7072,0.70713 -0.2667,-0.26673 z"
           id="path2532" />
        <path
           d="m 22.6102,9.41917 h 0.7493 l 0.7072,0.70713 h -0.7493 z"
           id="path2533" />
        <path
           d="M 25.4042,9.40647 V 7.50782 l 0.7072,0.7071 v 1.89868 z"
           id="path2534" />
        <path
           d="m 25.4042,7.50782 0.6287,-0.635 0.7071,0.7071 -0.6286,0.635 z"
           id="path2535" />
        <path
           d="m 26.0329,6.87282 h 1.7208 l 0.7072,0.7071 H 26.74 Z"
           id="path2536" />
        <path
           d="m 27.7537,6.87282 0.6414,0.635 0.7071,0.7071 -0.6413,-0.635 z"
           id="path2537" />
        <path
           d="m 28.3951,7.50782 v 1.1811 l 0.7071,0.7071 v -1.1811 z"
           id="path2538" />
        <path
           d="m 28.3951,8.68892 h -2.2733 l 0.7071,0.7071 h 2.2733 z"
           id="path2539" />
        <path
           d="m 26.1218,8.68892 v 0.508 l 0.7071,0.7071 v -0.508 z"
           id="path2540" />
        <path
           d="m 26.1218,9.19692 0.2413,0.2413 0.7071,0.70708 -0.2413,-0.24128 z"
           id="path2541" />
        <path
           d="m 26.3631,9.43822 h 1.0858 l 0.7072,0.70708 h -1.0859 z"
           id="path2542" />
        <path
           d="m 27.4489,9.43822 0.2286,-0.23495 0.7072,0.7071 -0.2286,0.23493 z"
           id="path2543" />
        <path
           d="m 27.6775,9.20327 v -0.1905 l 0.7072,0.7071 v 0.1905 z"
           id="path2544" />
        <path
           d="m 27.6775,9.01277 h 0.7112 l 0.7072,0.7071 h -0.7112 z"
           id="path2545" />
        <path
           d="m 28.3887,9.01277 v 0.4064 l 0.7072,0.70713 V 9.71987 Z"
           id="path2546" />
        <path
           d="m 28.3887,9.41917 -0.6159,0.61593 0.7071,0.7071 0.616,-0.6159 z"
           id="path2547" />
        <path
           d="m 27.7728,10.0351 h -1.7463 l 0.7072,0.7071 h 1.7462 z"
           id="path2548" />
        <path
           d="m 26.0265,10.0351 -0.6223,-0.62863 0.7072,0.70713 0.6223,0.6286 z"
           id="path2549" />
        <path
           d="M 27.6775,8.16187 V 7.72372 l 0.7072,0.7071 v 0.43815 z"
           id="path2550" />
        <path
           d="m 27.6775,7.72372 -0.2476,-0.254 0.7071,0.7071 0.2477,0.254 z"
           id="path2551" />
        <path
           d="m 27.4299,7.46972 h -1.0605 l 0.7072,0.7071 h 1.0604 z"
           id="path2552" />
        <path
           d="m 26.3694,7.46972 -0.2476,0.254 0.7071,0.7071 0.2477,-0.254 z"
           id="path2553" />
        <path
           d="m 26.1218,7.72372 v 0.43815 l 0.7071,0.7071 V 8.43082 Z"
           id="path2554" />
        <path
           d="m 26.1218,8.16187 h 1.5557 l 0.7072,0.7071 h -1.5558 z"
           id="path2555" />
        <path
           d="m 29.1253,6.87282 h 0.6668 l 0.7071,0.7071 h -0.6667 z"
           id="path2556" />
        <path
           d="m 29.7921,6.87282 v 0.57785 l 0.7071,0.7071 V 7.57992 Z"
           id="path2557" />
        <path
           d="m 29.7921,7.45067 0.5778,-0.57785 0.7072,0.7071 -0.5779,0.57785 z"
           id="path2558" />
        <path
           d="m 30.3699,6.87282 h 1.0033 l 0.7072,0.7071 h -1.0033 z"
           id="path2559" />
        <path
           d="M 31.3732,6.87282 32.04,7.53957 32.7471,8.24667 32.0804,7.57992 Z"
           id="path2560" />
        <path
           d="m 32.04,7.53957 v 2.49553 l 0.7071,0.7071 V 8.24667 Z"
           id="path2561" />
        <path
           d="m 32.04,10.0351 h -0.7176 l 0.7072,0.7071 h 0.7175 z"
           id="path2562" />
        <path
           d="M 31.3224,10.0351 V 7.73642 l 0.7072,0.7071 v 2.29868 z"
           id="path2563" />
        <path
           d="m 31.3224,7.73642 -0.2476,-0.24765 0.7071,0.7071 0.2477,0.24765 z"
           id="path2564" />
        <path
           d="m 31.0748,7.48877 h -0.5715 l 0.7071,0.7071 h 0.5715 z"
           id="path2565" />
        <path
           d="M 30.5033,7.48877 29.8429,8.15552 30.55,8.86262 31.2104,8.19587 Z"
           id="path2566" />
        <path
           d="M 29.8429,8.15552 V 10.0351 L 30.55,10.7422 V 8.86262 Z"
           id="path2567" />
        <path
           d="m 29.8429,10.0351 h -0.7176 l 0.7072,0.7071 H 30.55 Z"
           id="path2568" />
        <path
           d="M 29.1253,10.0351 V 6.87282 l 0.7072,0.7071 v 3.16228 z"
           id="path2569" />
        <path
           d="m 32.7702,9.40012 v -1.8923 l 0.7071,0.7071 v 1.89228 z"
           id="path2570" />
        <path
           d="m 32.7702,7.50782 0.6287,-0.635 0.7071,0.7071 -0.6287,0.635 z"
           id="path2571" />
        <path
           d="m 33.3989,6.87282 h 1.2446 l 0.7071,0.7071 H 34.106 Z"
           id="path2572" />
        <path
           d="m 34.6435,6.87282 0.4254,0.3683 0.7071,0.7071 -0.4254,-0.3683 z"
           id="path2573" />
        <path
           d="m 35.0689,7.24112 v -1.7399 l 0.7071,0.7071 v 1.7399 z"
           id="path2574" />
        <path
           d="m 35.0689,5.50122 h 0.7176 l 0.7071,0.7071 H 35.776 Z"
           id="path2575" />
        <path
           d="m 35.7865,5.50122 v 4.53388 l 0.7071,0.7071 V 6.20832 Z"
           id="path2576" />
        <path
           d="M 35.7865,10.0351 H 35.107 l 0.7071,0.7071 h 0.6795 z"
           id="path2577" />
        <path
           d="M 35.107,10.0351 V 9.51442 l 0.7071,0.70708 v 0.5207 z"
           id="path2578" />
        <path
           d="m 35.107,9.51442 -0.5207,0.52068 0.7071,0.7071 0.5207,-0.5207 z"
           id="path2579" />
        <path
           d="m 34.5863,10.0351 h -1.1874 l 0.7071,0.7071 h 1.1874 z"
           id="path2580" />
        <path
           d="m 33.3989,10.0351 -0.6287,-0.63498 0.7071,0.70708 0.6287,0.635 z"
           id="path2581" />
        <path
           d="m 34.5038,9.41917 0.5651,-0.5715 0.7071,0.7071 -0.5651,0.57153 z"
           id="path2582" />
        <path
           d="m 35.0689,8.84767 v -0.9271 l 0.7071,0.7071 v 0.9271 z"
           id="path2583" />
        <path
           d="m 35.0689,7.92057 -0.4889,-0.4318 0.7071,0.7071 0.4889,0.4318 z"
           id="path2584" />
        <path
           d="m 34.58,7.48877 h -0.8255 l 0.7071,0.7071 h 0.8255 z"
           id="path2585" />
        <path
           d="m 33.7545,7.48877 -0.2667,0.2667 0.7071,0.7071 0.2667,-0.2667 z"
           id="path2586" />
        <path
           d="m 33.4878,7.75547 v 1.397 l 0.7071,0.7071 v -1.397 z"
           id="path2587" />
        <path
           d="m 33.4878,9.15247 0.2667,0.2667 0.7071,0.70713 -0.2667,-0.26673 z"
           id="path2588" />
        <path
           d="m 33.7545,9.41917 h 0.7493 l 0.7071,0.70713 h -0.7493 z"
           id="path2589" />
        <path
           d="m 36.5485,9.40012 v -1.8923 l 0.7071,0.7071 v 1.89228 z"
           id="path2590" />
        <path
           d="m 36.5485,7.50782 0.6286,-0.635 0.7071,0.7071 -0.6286,0.635 z"
           id="path2591" />
        <path
           d="m 37.1771,6.87282 h 1.7526 l 0.7071,0.7071 h -1.7526 z"
           id="path2592" />
        <path
           d="m 38.9297,6.87282 0.635,0.635 0.7071,0.7071 -0.635,-0.635 z"
           id="path2593" />
        <path
           d="m 39.5647,7.50782 v 1.8923 l 0.7071,0.70708 V 8.21492 Z"
           id="path2594" />
        <path
           d="m 39.5647,9.40012 -0.635,0.63498 0.7071,0.7071 0.635,-0.635 z"
           id="path2595" />
        <path
           d="m 38.9297,10.0351 h -1.7526 l 0.7071,0.7071 h 1.7526 z"
           id="path2596" />
        <path
           d="m 37.1771,10.0351 -0.6286,-0.63498 0.7071,0.70708 0.6286,0.635 z"
           id="path2597" />
        <path
           d="m 38.5932,9.43187 0.254,-0.254 0.7071,0.7071 -0.254,0.25403 z"
           id="path2598" />
        <path
           d="m 38.8472,9.17787 v -1.4478 l 0.7071,0.7071 v 1.4478 z"
           id="path2599" />
        <path
           d="m 38.8472,7.73007 -0.254,-0.254 0.7071,0.7071 0.254,0.254 z"
           id="path2600" />
        <path
           d="M 38.5932,7.47607 H 37.52 l 0.7071,0.7071 h 1.0732 z"
           id="path2601" />
        <path
           d="m 37.52,7.47607 -0.254,0.254 0.7071,0.7071 0.254,-0.254 z"
           id="path2602" />
        <path
           d="m 37.266,7.73007 v 1.4478 l 0.7071,0.7071 v -1.4478 z"
           id="path2603" />
        <path
           d="m 37.266,9.17787 0.254,0.254 0.7071,0.70713 -0.254,-0.25403 z"
           id="path2604" />
        <path
           d="m 37.52,9.43187 h 1.0732 l 0.7071,0.70713 h -1.0732 z"
           id="path2605" />
        <path
           d="m 42.0285,5.59012 h 2.7051 l 0.7071,0.7071 h -2.7051 z"
           id="path2606" />
        <path
           d="m 44.7336,5.59012 0.6477,0.65405 0.7071,0.7071 -0.6477,-0.65405 z"
           id="path2607" />
        <path
           d="m 45.3813,6.24417 v 1.5113 l 0.7071,0.7071 v -1.5113 z"
           id="path2608" />
        <path
           d="m 45.3813,7.75547 -0.654,0.6604 0.7071,0.7071 0.654,-0.6604 z"
           id="path2609" />
        <path
           d="m 44.7273,8.41587 h -1.9622 l 0.7071,0.7071 h 1.9622 z"
           id="path2610" />
        <path
           d="m 42.7651,8.41587 v 1.61923 l 0.7071,0.7071 V 9.12297 Z"
           id="path2611" />
        <path
           d="m 42.7651,10.0351 h -0.7366 l 0.7071,0.7071 h 0.7366 z"
           id="path2612" />
        <path
           d="M 42.0285,10.0351 V 5.59012 l 0.7071,0.7071 v 4.44498 z"
           id="path2613" />
        <path
           d="m 44.4034,7.79357 0.254,-0.254 0.7071,0.7071 -0.254,0.254 z"
           id="path2614" />
        <path
           d="M 44.6574,7.53957 V 6.46642 l 0.7071,0.7071 v 1.07315 z"
           id="path2615" />
        <path
           d="m 44.6574,6.46642 -0.254,-0.254 0.7071,0.7071 0.254,0.254 z"
           id="path2616" />
        <path
           d="m 44.4034,6.21242 h -1.6383 l 0.7071,0.7071 h 1.6383 z"
           id="path2617" />
        <path
           d="m 42.7651,6.21242 v 1.58115 l 0.7071,0.7071 V 6.91952 Z"
           id="path2618" />
        <path
           d="m 42.7651,7.79357 h 1.6383 l 0.7071,0.7071 h -1.6383 z"
           id="path2619" />
        <path
           d="m 48.8738,6.87282 v 3.91158 l 0.7071,0.7071 V 7.57992 Z"
           id="path2620" />
        <path
           d="m 48.8738,10.7844 -0.654,0.6477 0.7071,0.7071 0.654,-0.6477 z"
           id="path2621" />
        <path
           d="m 48.2198,11.4321 h -1.6129 l 0.7071,0.7071 h 1.6129 z"
           id="path2622" />
        <path
           d="m 46.6069,11.4321 -0.5588,-0.5524 0.7071,0.7071 0.5588,0.5524 z"
           id="path2623" />
        <path
           d="m 46.0481,10.8797 v -0.4191 l 0.7071,0.7071 v 0.4191 z"
           id="path2624" />
        <path
           d="m 46.0481,10.4606 h 0.7175 l 0.7071,0.7071 h -0.7175 z"
           id="path2625" />
        <path
           d="m 46.7656,10.4606 v 0.2095 l 0.7071,0.7071 v -0.2095 z"
           id="path2626" />
        <path
           d="m 46.7656,10.6701 0.1524,0.1588 0.7071,0.7071 -0.1524,-0.1588 z"
           id="path2627" />
        <path
           d="m 46.918,10.8289 h 0.9906 l 0.7071,0.7071 h -0.9906 z"
           id="path2628" />
        <path
           d="m 47.9086,10.8289 0.2477,-0.254 0.7071,0.7071 -0.2477,0.254 z"
           id="path2629" />
        <path
           d="M 48.1563,10.5749 V 9.49537 l 0.7071,0.70713 v 1.0795 z"
           id="path2630" />
        <path
           d="m 48.1563,9.49537 -0.5334,0.53973 0.7071,0.7071 0.5334,-0.5397 z"
           id="path2631" />
        <path
           d="m 47.6229,10.0351 h -1.0224 l 0.7071,0.7071 H 48.33 Z"
           id="path2632" />
        <path
           d="m 46.6005,10.0351 -0.6477,-0.65403 0.7071,0.70713 0.6477,0.654 z"
           id="path2633" />
        <path
           d="M 45.9528,9.38107 V 6.87282 l 0.7071,0.7071 v 2.50828 z"
           id="path2634" />
        <path
           d="m 45.9528,6.87282 h 0.7176 l 0.7071,0.7071 h -0.7176 z"
           id="path2635" />
        <path
           d="m 46.6704,6.87282 v 2.2987 l 0.7071,0.7071 v -2.2987 z"
           id="path2636" />
        <path
           d="M 46.6704,9.17152 46.918,9.41917 47.6251,10.1263 47.3775,9.87862 Z"
           id="path2637" />
        <path
           d="m 46.918,9.41917 h 0.5779 l 0.7071,0.70713 h -0.5779 z"
           id="path2638" />
        <path
           d="m 47.4959,9.41917 0.6604,-0.6858 0.7071,0.7071 -0.6604,0.68583 z"
           id="path2639" />
        <path
           d="M 48.1563,8.73337 V 6.87282 l 0.7071,0.7071 v 1.86055 z"
           id="path2640" />
        <path
           d="m 48.1563,6.87282 h 0.7175 l 0.7071,0.7071 h -0.7175 z"
           id="path2641" />
        <path
           d="M 49.9851,9.40647 V 7.48242 l 0.7071,0.7071 v 1.92408 z"
           id="path2642" />
        <path
           d="m 49.9851,7.48242 h -0.5715 l 0.7071,0.7071 h 0.5715 z"
           id="path2643" />
        <path
           d="m 49.4136,7.48242 v -0.6096 l 0.7071,0.7071 v 0.6096 z"
           id="path2644" />
        <path
           d="m 49.4136,6.87282 h 0.5842 l 0.7071,0.7071 h -0.5842 z"
           id="path2645" />
        <path
           d="m 49.9978,6.87282 v -1.0287 l 0.7071,0.7071 v 1.0287 z"
           id="path2646" />
        <path
           d="m 49.9978,5.84412 h 0.7048 l 0.7071,0.7071 h -0.7048 z"
           id="path2647" />
        <path
           d="m 50.7026,5.84412 v 1.0287 l 0.7071,0.7071 v -1.0287 z"
           id="path2648" />
        <path
           d="m 50.7026,6.87282 h 0.9716 l 0.7071,0.7071 h -0.9716 z"
           id="path2649" />
        <path
           d="m 51.6742,6.87282 v 0.6096 l 0.7071,0.7071 v -0.6096 z"
           id="path2650" />
        <path
           d="m 51.6742,7.48242 h -0.9716 l 0.7071,0.7071 h 0.9716 z"
           id="path2651" />
        <path
           d="m 50.7026,7.48242 v 1.69545 l 0.7071,0.7071 V 8.18952 Z"
           id="path2652" />
        <path
           d="m 50.7026,9.17787 0.2477,0.24765 0.7071,0.70708 -0.2477,-0.24763 z"
           id="path2653" />
        <path
           d="m 50.9503,9.42552 h 0.7239 l 0.7071,0.70708 h -0.7239 z"
           id="path2654" />
        <path
           d="m 51.6742,9.42552 v 0.60958 l 0.7071,0.7071 v -0.6096 z"
           id="path2655" />
        <path
           d="m 51.6742,10.0351 h -1.0605 l 0.7071,0.7071 h 1.0605 z"
           id="path2656" />
        <path
           d="m 50.6137,10.0351 -0.6286,-0.62863 0.7071,0.70713 0.6286,0.6286 z"
           id="path2657" />
        <path
           d="m 52.2774,5.50122 h 0.7176 l 0.7071,0.7071 h -0.7176 z"
           id="path2658" />
        <path
           d="m 52.995,5.50122 v 1.9177 l 0.7071,0.7071 v -1.9177 z"
           id="path2659" />
        <path
           d="m 52.995,7.41892 0.5461,-0.5461 0.7071,0.7071 -0.5461,0.5461 z"
           id="path2660" />
        <path
           d="m 53.5411,6.87282 h 0.9969 l 0.7071,0.7071 h -0.9969 z"
           id="path2661" />
        <path
           d="m 54.538,6.87282 0.6668,0.66675 0.7071,0.7071 -0.6668,-0.66675 z"
           id="path2662" />
        <path
           d="m 55.2048,7.53957 v 2.49553 l 0.7071,0.7071 V 8.24667 Z"
           id="path2663" />
        <path
           d="m 55.2048,10.0351 h -0.7176 l 0.7071,0.7071 h 0.7176 z"
           id="path2664" />
        <path
           d="M 54.4872,10.0351 V 7.73642 l 0.7071,0.7071 v 2.29868 z"
           id="path2665" />
        <path
           d="m 54.4872,7.73642 -0.2476,-0.24765 0.7071,0.7071 0.2476,0.24765 z"
           id="path2666" />
        <path
           d="m 54.2396,7.48877 h -0.5842 l 0.7071,0.7071 h 0.5842 z"
           id="path2667" />
        <path
           d="m 53.6554,7.48877 -0.6604,0.66675 0.7071,0.7071 0.6604,-0.66675 z"
           id="path2668" />
        <path
           d="m 52.995,8.15552 v 1.87958 l 0.7071,0.7071 V 8.86262 Z"
           id="path2669" />
        <path
           d="m 52.995,10.0351 h -0.7176 l 0.7071,0.7071 h 0.7176 z"
           id="path2670" />
        <path
           d="M 52.2774,10.0351 V 5.50122 l 0.7071,0.7071 v 4.53388 z"
           id="path2671" />
        <path
           d="m 55.935,9.40012 v -1.8923 l 0.7071,0.7071 v 1.89228 z"
           id="path2672" />
        <path
           d="m 55.935,7.50782 0.6287,-0.635 0.7071,0.7071 -0.6287,0.635 z"
           id="path2673" />
        <path
           d="m 56.5637,6.87282 h 1.7526 l 0.7071,0.7071 h -1.7526 z"
           id="path2674" />
        <path
           d="m 58.3163,6.87282 0.635,0.635 0.7071,0.7071 -0.635,-0.635 z"
           id="path2675" />
        <path
           d="m 58.9513,7.50782 v 1.8923 l 0.7071,0.70708 V 8.21492 Z"
           id="path2676" />
        <path
           d="m 58.9513,9.40012 -0.635,0.63498 0.7071,0.7071 0.635,-0.635 z"
           id="path2677" />
        <path
           d="m 58.3163,10.0351 h -1.7526 l 0.7071,0.7071 h 1.7526 z"
           id="path2678" />
        <path
           d="m 56.5637,10.0351 -0.6287,-0.63498 0.7071,0.70708 0.6287,0.635 z"
           id="path2679" />
        <path
           d="m 57.9797,9.43187 0.254,-0.254 0.7071,0.7071 -0.254,0.25403 z"
           id="path2680" />
        <path
           d="m 58.2337,9.17787 v -1.4478 l 0.7071,0.7071 v 1.4478 z"
           id="path2681" />
        <path
           d="m 58.2337,7.73007 -0.254,-0.254 0.7071,0.7071 0.254,0.254 z"
           id="path2682" />
        <path
           d="m 57.9797,7.47607 h -1.0731 l 0.7071,0.7071 h 1.0731 z"
           id="path2683" />
        <path
           d="m 56.9066,7.47607 -0.254,0.254 0.7071,0.7071 0.254,-0.254 z"
           id="path2684" />
        <path
           d="m 56.6526,7.73007 v 1.4478 l 0.7071,0.7071 v -1.4478 z"
           id="path2685" />
        <path
           d="m 56.6526,9.17787 0.254,0.254 0.7071,0.70713 -0.254,-0.25403 z"
           id="path2686" />
        <path
           d="m 56.9066,9.43187 h 1.0731 l 0.7071,0.70713 h -1.0731 z"
           id="path2687" />
        <path
           d="M 59.7133,6.87282 H 60.38 l 0.7071,0.7071 h -0.6667 z"
           id="path2688" />
        <path
           d="m 60.38,6.87282 v 0.57785 l 0.7071,0.7071 V 7.57992 Z"
           id="path2689" />
        <path
           d="m 60.38,7.45067 0.5779,-0.57785 0.7071,0.7071 -0.5779,0.57785 z"
           id="path2690" />
        <path
           d="m 60.9579,6.87282 h 1.0033 l 0.7071,0.7071 H 61.665 Z"
           id="path2691" />
        <path
           d="m 61.9612,6.87282 0.6667,0.66675 0.7071,0.7071 -0.6667,-0.66675 z"
           id="path2692" />
        <path
           d="m 62.6279,7.53957 v 2.49553 l 0.7071,0.7071 V 8.24667 Z"
           id="path2693" />
        <path
           d="m 62.6279,10.0351 h -0.7175 l 0.7071,0.7071 h 0.7175 z"
           id="path2694" />
        <path
           d="M 61.9104,10.0351 V 7.73642 l 0.7071,0.7071 v 2.29868 z"
           id="path2695" />
        <path
           d="m 61.9104,7.73642 -0.2477,-0.24765 0.7071,0.7071 0.2477,0.24765 z"
           id="path2696" />
        <path
           d="m 61.6627,7.48877 h -0.5715 l 0.7071,0.7071 h 0.5715 z"
           id="path2697" />
        <path
           d="m 61.0912,7.48877 -0.6604,0.66675 0.7071,0.7071 0.6604,-0.66675 z"
           id="path2698" />
        <path
           d="m 60.4308,8.15552 v 1.87958 l 0.7071,0.7071 V 8.86262 Z"
           id="path2699" />
        <path
           d="m 60.4308,10.0351 h -0.7175 l 0.7071,0.7071 h 0.7175 z"
           id="path2700" />
        <path
           d="M 59.7133,10.0351 V 6.87282 l 0.7071,0.7071 v 3.16228 z"
           id="path2701" />
        <path
           d="m 65.0917,6.87282 h 0.6668 l 0.7071,0.7071 h -0.6668 z"
           id="path2702" />
        <path
           d="m 65.7585,6.87282 v 0.57785 l 0.7071,0.7071 V 7.57992 Z"
           id="path2703" />
        <path
           d="m 65.7585,7.45067 0.5778,-0.57785 0.7071,0.7071 -0.5778,0.57785 z"
           id="path2704" />
        <path
           d="m 66.3363,6.87282 h 1.0033 l 0.7071,0.7071 h -1.0033 z"
           id="path2705" />
        <path
           d="m 67.3396,6.87282 0.6668,0.66675 0.7071,0.7071 -0.6668,-0.66675 z"
           id="path2706" />
        <path
           d="m 68.0064,7.53957 v 2.49553 l 0.7071,0.7071 V 8.24667 Z"
           id="path2707" />
        <path
           d="m 68.0064,10.0351 h -0.7176 l 0.7071,0.7071 h 0.7176 z"
           id="path2708" />
        <path
           d="M 67.2888,10.0351 V 7.73642 l 0.7071,0.7071 v 2.29868 z"
           id="path2709" />
        <path
           d="m 67.2888,7.73642 -0.2476,-0.24765 0.7071,0.7071 0.2476,0.24765 z"
           id="path2710" />
        <path
           d="m 67.0412,7.48877 h -0.5715 l 0.7071,0.7071 h 0.5715 z"
           id="path2711" />
        <path
           d="m 66.4697,7.48877 -0.6604,0.66675 0.7071,0.7071 0.6604,-0.66675 z"
           id="path2712" />
        <path
           d="m 65.8093,8.15552 v 1.87958 l 0.7071,0.7071 V 8.86262 Z"
           id="path2713" />
        <path
           d="m 65.8093,10.0351 h -0.7176 l 0.7071,0.7071 h 0.7176 z"
           id="path2714" />
        <path
           d="M 65.0917,10.0351 V 6.87282 l 0.7071,0.7071 v 3.16228 z"
           id="path2715" />
        <path
           d="M 68.7684,9.39377 V 6.87282 l 0.7071,0.7071 v 2.52098 z"
           id="path2716" />
        <path
           d="m 68.7684,6.87282 h 0.7175 l 0.7071,0.7071 h -0.7175 z"
           id="path2717" />
        <path
           d="m 69.4859,6.87282 v 2.2987 l 0.7071,0.7071 v -2.2987 z"
           id="path2718" />
        <path
           d="M 69.4859,9.17152 69.7336,9.41917 70.4407,10.1263 70.193,9.87862 Z"
           id="path2719" />
        <path
           d="m 69.7336,9.41917 h 0.5524 l 0.7071,0.70713 h -0.5524 z"
           id="path2720" />
        <path
           d="m 70.286,9.41917 0.6731,-0.6731 0.7071,0.7071 -0.6731,0.67313 z"
           id="path2721" />
        <path
           d="M 70.9591,8.74607 V 6.87282 l 0.7071,0.7071 v 1.87325 z"
           id="path2722" />
        <path
           d="m 70.9591,6.87282 h 0.7176 l 0.7071,0.7071 h -0.7176 z"
           id="path2723" />
        <path
           d="m 71.6767,6.87282 v 3.16228 l 0.7071,0.7071 V 7.57992 Z"
           id="path2724" />
        <path
           d="m 71.6767,10.0351 h -0.6668 l 0.7071,0.7071 h 0.6668 z"
           id="path2725" />
        <path
           d="M 71.0099,10.0351 V 9.45092 L 71.717,10.158 v 0.5842 z"
           id="path2726" />
        <path
           d="m 71.0099,9.45092 -0.5905,0.58418 0.7071,0.7071 0.5905,-0.5842 z"
           id="path2727" />
        <path
           d="m 70.4194,10.0351 h -1.0097 l 0.7071,0.7071 h 1.0097 z"
           id="path2728" />
        <path
           d="m 69.4097,10.0351 -0.6413,-0.64133 0.7071,0.70713 0.6413,0.6413 z"
           id="path2729" />
        <path
           d="m 72.5022,6.87282 h 0.6667 l 0.7071,0.7071 h -0.6667 z"
           id="path2730" />
        <path
           d="m 73.1689,6.87282 v 0.57785 l 0.7071,0.7071 V 7.57992 Z"
           id="path2731" />
        <path
           d="m 73.1689,7.45067 0.5779,-0.57785 0.7071,0.7071 -0.5779,0.57785 z"
           id="path2732" />
        <path
           d="m 73.7468,6.87282 h 1.0033 l 0.7071,0.7071 h -1.0033 z"
           id="path2733" />
        <path
           d="m 74.7501,6.87282 0.6667,0.66675 0.7071,0.7071 -0.6667,-0.66675 z"
           id="path2734" />
        <path
           d="m 75.4168,7.53957 v 2.49553 l 0.7071,0.7071 V 8.24667 Z"
           id="path2735" />
        <path
           d="m 75.4168,10.0351 h -0.7175 l 0.7071,0.7071 h 0.7175 z"
           id="path2736" />
        <path
           d="M 74.6993,10.0351 V 7.73642 l 0.7071,0.7071 v 2.29868 z"
           id="path2737" />
        <path
           d="m 74.6993,7.73642 -0.2477,-0.24765 0.7071,0.7071 0.2477,0.24765 z"
           id="path2738" />
        <path
           d="m 74.4516,7.48877 h -0.5715 l 0.7071,0.7071 h 0.5715 z"
           id="path2739" />
        <path
           d="m 73.8801,7.48877 -0.6604,0.66675 0.7071,0.7071 0.6604,-0.66675 z"
           id="path2740" />
        <path
           d="m 73.2197,8.15552 v 1.87958 l 0.7071,0.7071 V 8.86262 Z"
           id="path2741" />
        <path
           d="m 73.2197,10.0351 h -0.7175 l 0.7071,0.7071 h 0.7175 z"
           id="path2742" />
        <path
           d="M 72.5022,10.0351 V 6.87282 l 0.7071,0.7071 v 3.16228 z"
           id="path2743" />
        <path
           d="m 76.1471,9.40647 v -1.905 l 0.7071,0.7071 v 1.90503 z"
           id="path2744" />
        <path
           d="m 76.1471,7.50147 0.6223,-0.62865 0.7071,0.7071 -0.6223,0.62865 z"
           id="path2745" />
        <path
           d="m 76.7694,6.87282 h 1.67 l 0.7071,0.7071 h -1.67 z"
           id="path2746" />
        <path
           d="m 78.4394,6.87282 0.6287,0.635 0.7071,0.7071 -0.6287,-0.635 z"
           id="path2747" />
        <path
           d="m 79.0681,7.50782 v 0.5207 l 0.7071,0.7071 v -0.5207 z"
           id="path2748" />
        <path
           d="m 79.0681,8.02852 h -0.7176 l 0.7071,0.7071 h 0.7176 z"
           id="path2749" />
        <path
           d="m 78.3505,8.02852 v -0.2921 l 0.7071,0.7071 v 0.2921 z"
           id="path2750" />
        <path
           d="m 78.3505,7.73642 -0.254,-0.24765 0.7071,0.7071 0.254,0.24765 z"
           id="path2751" />
        <path
           d="m 78.0965,7.48877 h -0.9779 l 0.7071,0.7071 h 0.9779 z"
           id="path2752" />
        <path
           d="m 77.1186,7.48877 -0.254,0.24765 0.7071,0.7071 0.254,-0.24765 z"
           id="path2753" />
        <path
           d="m 76.8646,7.73642 v 1.4351 l 0.7071,0.7071 v -1.4351 z"
           id="path2754" />
        <path
           d="m 76.8646,9.17152 0.254,0.24765 0.7071,0.70713 -0.254,-0.24768 z"
           id="path2755" />
        <path
           d="m 77.1186,9.41917 h 0.9779 l 0.7071,0.70713 h -0.9779 z"
           id="path2756" />
        <path
           d="m 78.0965,9.41917 0.254,-0.24765 0.7071,0.7071 -0.254,0.24768 z"
           id="path2757" />
        <path
           d="m 78.3505,9.17152 v -0.2921 l 0.7071,0.7071 v 0.2921 z"
           id="path2758" />
        <path
           d="m 78.3505,8.87942 h 0.7176 l 0.7071,0.7071 h -0.7176 z"
           id="path2759" />
        <path
           d="m 79.0681,8.87942 v 0.5207 l 0.7071,0.70708 V 9.58652 Z"
           id="path2760" />
        <path
           d="m 79.0681,9.40012 -0.6287,0.63498 0.7071,0.7071 0.6287,-0.635 z"
           id="path2761" />
        <path
           d="m 78.4394,10.0351 h -1.67 l 0.7071,0.7071 h 1.67 z"
           id="path2762" />
        <path
           d="m 76.7694,10.0351 -0.6223,-0.62863 0.7071,0.70713 0.6223,0.6286 z"
           id="path2763" />
        <path
           d="m 79.6078,9.46997 v -0.7493 l 0.7071,0.7071 v 0.74933 z"
           id="path2764" />
        <path
           d="m 79.6078,8.72067 0.5652,-0.5588 0.7071,0.7071 -0.5652,0.5588 z"
           id="path2765" />
        <path
           d="m 80.173,8.16187 h 1.6319 l 0.7071,0.7071 h -1.6319 z"
           id="path2766" />
        <path
           d="m 81.8049,8.16187 v -0.4699 l 0.7071,0.7071 v 0.4699 z"
           id="path2767" />
        <path
           d="M 81.8049,7.69197 81.57,7.45702 l 0.7071,0.7071 0.2349,0.23495 z"
           id="path2768" />
        <path
           d="m 81.57,7.45702 h -0.997 l 0.7071,0.7071 h 0.997 z"
           id="path2769" />
        <path
           d="m 80.573,7.45702 -0.2349,0.23495 0.7071,0.7071 0.2349,-0.23495 z"
           id="path2770" />
        <path
           d="m 80.3381,7.69197 v 0.2032 l 0.7071,0.7071 v -0.2032 z"
           id="path2771" />
        <path
           d="m 80.3381,7.89517 h -0.7049 l 0.7071,0.7071 h 0.7049 z"
           id="path2772" />
        <path
           d="m 79.6332,7.89517 v -0.3683 l 0.7071,0.7071 v 0.3683 z"
           id="path2773" />
        <path
           d="m 79.6332,7.52687 0.6477,-0.65405 0.7071,0.7071 -0.6477,0.65405 z"
           id="path2774" />
        <path
           d="m 80.2809,6.87282 h 1.5812 l 0.7071,0.7071 H 80.988 Z"
           id="path2775" />
        <path
           d="m 81.8621,6.87282 0.6477,0.65405 0.7071,0.7071 -0.6477,-0.65405 z"
           id="path2776" />
        <path
           d="m 82.5098,7.52687 v 2.50823 l 0.7071,0.7071 V 8.23397 Z"
           id="path2777" />
        <path
           d="m 82.5098,10.0351 h -0.6541 l 0.7071,0.7071 h 0.6541 z"
           id="path2778" />
        <path
           d="M 81.8557,10.0351 V 9.54617 l 0.7071,0.70713 v 0.4889 z"
           id="path2779" />
        <path
           d="m 81.8557,9.54617 -0.508,0.48893 0.7071,0.7071 0.508,-0.4889 z"
           id="path2780" />
        <path
           d="M 81.3477,10.0351 H 80.173 l 0.7071,0.7071 h 1.1747 z"
           id="path2781" />
        <path
           d="m 80.173,10.0351 -0.5652,-0.56513 0.7071,0.70713 0.5652,0.5651 z"
           id="path2782" />
        <path
           d="m 81.2779,9.46997 0.527,-0.508 0.7071,0.7071 -0.527,0.50803 z"
           id="path2783" />
        <path
           d="m 81.8049,8.96197 v -0.2667 l 0.7071,0.7071 v 0.2667 z"
           id="path2784" />
        <path
           d="m 81.8049,8.69527 h -1.289 l 0.7071,0.7071 h 1.289 z"
           id="path2785" />
        <path
           d="m 80.5159,8.69527 -0.2032,0.19685 0.7071,0.7071 0.2032,-0.19685 z"
           id="path2786" />
        <path
           d="m 80.3127,8.89212 v 0.38735 l 0.7071,0.7071 V 9.59922 Z"
           id="path2787" />
        <path
           d="m 80.3127,9.27947 0.1905,0.1905 0.7071,0.70713 -0.1905,-0.19053 z"
           id="path2788" />
        <path
           d="m 80.5032,9.46997 h 0.7747 l 0.7071,0.70713 h -0.7747 z"
           id="path2789" />
        <path
           d="m 85.2593,7.48242 h -0.5715 l 0.7071,0.7071 h 0.5715 z"
           id="path2790" />
        <path
           d="m 84.6878,7.48242 v -0.6096 l 0.7071,0.7071 v 0.6096 z"
           id="path2791" />
        <path
           d="m 84.6878,6.87282 h 0.5715 l 0.7071,0.7071 h -0.5715 z"
           id="path2792" />
        <path
           d="M 85.2593,6.87282 V 6.21877 l 0.7071,0.7071 v 0.65405 z"
           id="path2793" />
        <path
           d="m 85.2593,6.21877 0.6096,-0.6096 0.7071,0.7071 -0.6096,0.6096 z"
           id="path2794" />
        <path
           d="m 85.8689,5.60917 h 1.0859 l 0.7071,0.7071 H 86.576 Z"
           id="path2795" />
        <path
           d="m 86.9548,5.60917 v 0.5969 l 0.7071,0.7071 v -0.5969 z"
           id="path2796" />
        <path
           d="m 86.9548,6.20607 h -0.7747 l 0.7071,0.7071 h 0.7747 z"
           id="path2797" />
        <path
           d="m 86.1801,6.20607 -0.2159,0.20955 0.7071,0.7071 0.2159,-0.20955 z"
           id="path2798" />
        <path
           d="m 85.9642,6.41562 v 0.4572 l 0.7071,0.7071 v -0.4572 z"
           id="path2799" />
        <path
           d="m 85.9642,6.87282 h 0.9906 l 0.7071,0.7071 h -0.9906 z"
           id="path2800" />
        <path
           d="m 86.9548,6.87282 v 0.6096 l 0.7071,0.7071 v -0.6096 z"
           id="path2801" />
        <path
           d="m 86.9548,7.48242 h -0.9779 l 0.7071,0.7071 h 0.9779 z"
           id="path2802" />
        <path
           d="m 85.9769,7.48242 v 2.55268 l 0.7071,0.7071 V 8.18952 Z"
           id="path2803" />
        <path
           d="m 85.9769,10.0351 h -0.7176 l 0.7071,0.7071 h 0.7176 z"
           id="path2804" />
        <path
           d="M 85.2593,10.0351 V 7.48242 l 0.7071,0.7071 v 2.55268 z"
           id="path2805" />
        <path
           d="m 87.2723,9.40012 v -1.8923 l 0.7071,0.7071 v 1.89228 z"
           id="path2806" />
        <path
           d="m 87.2723,7.50782 0.6286,-0.635 0.7071,0.7071 -0.6286,0.635 z"
           id="path2807" />
        <path
           d="m 87.9009,6.87282 h 1.7526 l 0.7071,0.7071 H 88.608 Z"
           id="path2808" />
        <path
           d="m 89.6535,6.87282 0.635,0.635 0.7071,0.7071 -0.635,-0.635 z"
           id="path2809" />
        <path
           d="m 90.2885,7.50782 v 1.8923 l 0.7071,0.70708 V 8.21492 Z"
           id="path2810" />
        <path
           d="m 90.2885,9.40012 -0.635,0.63498 0.7071,0.7071 0.635,-0.635 z"
           id="path2811" />
        <path
           d="m 89.6535,10.0351 h -1.7526 l 0.7071,0.7071 h 1.7526 z"
           id="path2812" />
        <path
           d="m 87.9009,10.0351 -0.6286,-0.63498 0.7071,0.70708 0.6286,0.635 z"
           id="path2813" />
        <path
           d="m 89.317,9.43187 0.254,-0.254 0.7071,0.7071 -0.254,0.25403 z"
           id="path2814" />
        <path
           d="m 89.571,9.17787 v -1.4478 l 0.7071,0.7071 v 1.4478 z"
           id="path2815" />
        <path
           d="m 89.571,7.73007 -0.254,-0.254 0.7071,0.7071 0.254,0.254 z"
           id="path2816" />
        <path
           d="m 89.317,7.47607 h -1.0732 l 0.7071,0.7071 h 1.0732 z"
           id="path2817" />
        <path
           d="m 88.2438,7.47607 -0.254,0.254 0.7071,0.7071 0.254,-0.254 z"
           id="path2818" />
        <path
           d="m 87.9898,7.73007 v 1.4478 l 0.7071,0.7071 v -1.4478 z"
           id="path2819" />
        <path
           d="m 87.9898,9.17787 0.254,0.254 0.7071,0.70713 -0.254,-0.25403 z"
           id="path2820" />
        <path
           d="M 88.2438,9.43187 H 89.317 L 90.0241,10.139 H 88.9509 Z"
           id="path2821" />
        <path
           d="m 91.0188,6.19337 v -0.3683 l 0.7071,0.7071 v 0.3683 z"
           id="path2822" />
        <path
           d="m 91.0188,5.82507 0.2603,-0.254 0.7071,0.7071 -0.2603,0.254 z"
           id="path2823" />
        <path
           d="m 91.2791,5.57107 h 0.3874 l 0.7071,0.7071 h -0.3874 z"
           id="path2824" />
        <path
           d="m 91.6665,5.57107 0.2603,0.254 0.7071,0.7071 -0.2603,-0.254 z"
           id="path2825" />
        <path
           d="m 91.9268,5.82507 v 0.3683 l 0.7071,0.7071 v -0.3683 z"
           id="path2826" />
        <path
           d="m 91.9268,6.19337 -0.2603,0.254 0.7071,0.7071 0.2603,-0.254 z"
           id="path2827" />
        <path
           d="m 91.6665,6.44737 h -0.3874 l 0.7071,0.7071 h 0.3874 z"
           id="path2828" />
        <path
           d="m 91.2791,6.44737 -0.2603,-0.254 0.7071,0.7071 0.2603,0.254 z"
           id="path2829" />
        <path
           d="m 91.114,6.87282 h 0.7176 l 0.7071,0.7071 h -0.7176 z"
           id="path2830" />
        <path
           d="m 91.8316,6.87282 v 3.16228 l 0.7071,0.7071 V 7.57992 Z"
           id="path2831" />
        <path
           d="M 91.8316,10.0351 H 91.114 l 0.7071,0.7071 h 0.7176 z"
           id="path2832" />
        <path
           d="M 91.114,10.0351 V 6.87282 l 0.7071,0.7071 v 3.16228 z"
           id="path2833" />
        <path
           d="M 94.6764,9.40647 V 7.48242 l 0.7071,0.7071 v 1.92408 z"
           id="path2834" />
        <path
           d="m 94.6764,7.48242 h -0.5715 l 0.7071,0.7071 h 0.5715 z"
           id="path2835" />
        <path
           d="m 94.1049,7.48242 v -0.6096 l 0.7071,0.7071 v 0.6096 z"
           id="path2836" />
        <path
           d="m 94.1049,6.87282 h 0.5842 l 0.7071,0.7071 H 94.812 Z"
           id="path2837" />
        <path
           d="m 94.6891,6.87282 v -1.0287 l 0.7071,0.7071 v 1.0287 z"
           id="path2838" />
        <path
           d="m 94.6891,5.84412 h 0.7048 l 0.7071,0.7071 h -0.7048 z"
           id="path2839" />
        <path
           d="m 95.3939,5.84412 v 1.0287 l 0.7071,0.7071 v -1.0287 z"
           id="path2840" />
        <path
           d="m 95.3939,6.87282 h 0.9716 l 0.7071,0.7071 H 96.101 Z"
           id="path2841" />
        <path
           d="m 96.3655,6.87282 v 0.6096 l 0.7071,0.7071 v -0.6096 z"
           id="path2842" />
        <path
           d="m 96.3655,7.48242 h -0.9716 l 0.7071,0.7071 h 0.9716 z"
           id="path2843" />
        <path
           d="m 95.3939,7.48242 v 1.69545 l 0.7071,0.7071 V 8.18952 Z"
           id="path2844" />
        <path
           d="M 95.3939,9.17787 95.6416,9.42552 96.3487,10.1326 96.101,9.88497 Z"
           id="path2845" />
        <path
           d="m 95.6416,9.42552 h 0.7239 l 0.7071,0.70708 h -0.7239 z"
           id="path2846" />
        <path
           d="m 96.3655,9.42552 v 0.60958 l 0.7071,0.7071 v -0.6096 z"
           id="path2847" />
        <path
           d="M 96.3655,10.0351 H 95.305 l 0.7071,0.7071 h 1.0605 z"
           id="path2848" />
        <path
           d="m 95.305,10.0351 -0.6286,-0.62863 0.7071,0.70713 0.6286,0.6286 z"
           id="path2849" />
        <path
           d="m 96.8735,9.46997 v -0.7493 l 0.7071,0.7071 v 0.74933 z"
           id="path2850" />
        <path
           d="m 96.8735,8.72067 0.5651,-0.5588 0.7071,0.7071 -0.5651,0.5588 z"
           id="path2851" />
        <path
           d="m 97.4386,8.16187 h 1.632 l 0.7071,0.7071 h -1.632 z"
           id="path2852" />
        <path
           d="m 99.0706,8.16187 v -0.4699 l 0.7071,0.7071 v 0.4699 z"
           id="path2853" />
        <path
           d="m 99.0706,7.69197 -0.235,-0.23495 0.7071,0.7071 0.235,0.23495 z"
           id="path2854" />
        <path
           d="m 98.8356,7.45702 h -0.9969 l 0.7071,0.7071 h 0.9969 z"
           id="path2855" />
        <path
           d="m 97.8387,7.45702 -0.235,0.23495 0.7071,0.7071 0.235,-0.23495 z"
           id="path2856" />
        <path
           d="m 97.6037,7.69197 v 0.2032 l 0.7071,0.7071 v -0.2032 z"
           id="path2857" />
        <path
           d="m 97.6037,7.89517 h -0.7048 l 0.7071,0.7071 h 0.7048 z"
           id="path2858" />
        <path
           d="m 96.8989,7.89517 v -0.3683 l 0.7071,0.7071 v 0.3683 z"
           id="path2859" />
        <path
           d="m 96.8989,7.52687 0.6477,-0.65405 0.7071,0.7071 -0.6477,0.65405 z"
           id="path2860" />
        <path
           d="m 97.5466,6.87282 h 1.5811 l 0.7071,0.7071 h -1.5811 z"
           id="path2861" />
        <path
           d="m 99.1277,6.87282 0.6477,0.65405 0.7076,0.7071 -0.6482,-0.65405 z"
           id="path2862" />
        <path
           d="m 99.7754,7.52687 v 2.50823 l 0.7076,0.7071 V 8.23397 Z"
           id="path2863" />
        <path
           d="m 99.7754,10.0351 h -0.654 l 0.7071,0.7071 h 0.6545 z"
           id="path2864" />
        <path
           d="M 99.1214,10.0351 V 9.54617 l 0.7071,0.70713 v 0.4889 z"
           id="path2865" />
        <path
           d="m 99.1214,9.54617 -0.508,0.48893 0.7071,0.7071 0.508,-0.4889 z"
           id="path2866" />
        <path
           d="m 98.6134,10.0351 h -1.1748 l 0.7071,0.7071 h 1.1748 z"
           id="path2867" />
        <path
           d="m 97.4386,10.0351 -0.5651,-0.56513 0.7071,0.70713 0.5651,0.5651 z"
           id="path2868" />
        <path
           d="m 98.5435,9.46997 0.5271,-0.508 0.7071,0.7071 -0.5271,0.50803 z"
           id="path2869" />
        <path
           d="m 99.0706,8.96197 v -0.2667 l 0.7071,0.7071 v 0.2667 z"
           id="path2870" />
        <path
           d="m 99.0706,8.69527 h -1.2891 l 0.7071,0.7071 h 1.2891 z"
           id="path2871" />
        <path
           d="m 97.7815,8.69527 -0.2032,0.19685 0.7071,0.7071 0.2032,-0.19685 z"
           id="path2872" />
        <path
           d="m 97.5783,8.89212 v 0.38735 l 0.7071,0.7071 V 9.59922 Z"
           id="path2873" />
        <path
           d="m 97.5783,9.27947 0.1905,0.1905 0.7071,0.70713 -0.1905,-0.19053 z"
           id="path2874" />
        <path
           d="m 97.7688,9.46997 h 0.7747 l 0.7071,0.70713 h -0.7747 z"
           id="path2875" />
        <path
           d="m 98.0927,6.15527 h -0.127 l 0.7071,0.7071 h 0.127 z"
           id="path2876" />
        <path
           d="m 97.9657,6.15527 -0.0953,0.0889 0.7071,0.7071 0.0953,-0.0889 z"
           id="path2877" />
        <path
           d="m 97.8704,6.24417 v 0.19685 l 0.7071,0.7071 V 6.95127 Z"
           id="path2878" />
        <path
           d="m 97.8704,6.44102 -0.5334,0.00635 0.7071,0.7071 0.5334,-0.00635 z"
           id="path2879" />
        <path
           d="M 97.337,6.44737 V 6.04732 l 0.7071,0.7071 v 0.40005 z"
           id="path2880" />
        <path
           d="m 97.337,6.04732 0.4064,-0.40005 0.7071,0.7071 -0.4064,0.40005 z"
           id="path2881" />
        <path
           d="m 97.7434,5.64727 h 0.489 l 0.7071,0.7071 h -0.489 z"
           id="path2882" />
        <path
           d="m 98.2324,5.64727 0.4064,0.3302 0.7071,0.7071 -0.4064,-0.3302 z"
           id="path2883" />
        <path
           d="m 98.6388,5.97747 h 0.1333 l 0.7071,0.7071 h -0.1333 z"
           id="path2884" />
        <path
           d="m 98.7721,5.97747 0.0889,-0.0889 0.7071,0.7071 -0.0889,0.0889 z"
           id="path2885" />
        <path
           d="m 98.861,5.88857 v -0.2032 l 0.7071,0.7071 v 0.2032 z"
           id="path2886" />
        <path
           d="m 98.861,5.68537 h 0.5334 l 0.7076,0.7071 h -0.5339 z"
           id="path2887" />
        <path
           d="m 99.3944,5.68537 v 0.3937 l 0.7076,0.7071 v -0.3937 z"
           id="path2888" />
        <path
           d="m 99.3944,6.07907 -0.4064,0.4064 0.7071,0.7071 0.4069,-0.4064 z"
           id="path2889" />
        <path
           d="m 98.988,6.48547 h -0.4889 l 0.7071,0.7071 h 0.4889 z"
           id="path2890" />
        <path
           d="m 98.4991,6.48547 -0.4064,-0.3302 0.7071,0.7071 0.4064,0.3302 z"
           id="path2891" />
        <path
           d="m 100.506,9.40012 v -1.8923 l 0.707,0.7071 v 1.89228 z"
           id="path2892" />
        <path
           d="m 100.506,7.50782 0.628,-0.635 0.707,0.7071 -0.628,0.635 z"
           id="path2893" />
        <path
           d="m 101.134,6.87282 h 1.753 l 0.707,0.7071 h -1.753 z"
           id="path2894" />
        <path
           d="m 102.887,6.87282 0.635,0.635 0.707,0.7071 -0.635,-0.635 z"
           id="path2895" />
        <path
           d="m 103.522,7.50782 v 1.8923 l 0.707,0.70708 V 8.21492 Z"
           id="path2896" />
        <path
           d="m 103.522,9.40012 -0.635,0.63498 0.707,0.7071 0.635,-0.635 z"
           id="path2897" />
        <path
           d="m 102.887,10.0351 h -1.753 l 0.707,0.7071 h 1.753 z"
           id="path2898" />
        <path
           d="m 101.134,10.0351 -0.628,-0.63498 0.707,0.70708 0.628,0.635 z"
           id="path2899" />
        <path
           d="m 102.55,9.43187 0.254,-0.254 0.707,0.7071 -0.254,0.25403 z"
           id="path2900" />
        <path
           d="m 102.804,9.17787 v -1.4478 l 0.707,0.7071 v 1.4478 z"
           id="path2901" />
        <path
           d="m 102.804,7.73007 -0.254,-0.254 0.707,0.7071 0.254,0.254 z"
           id="path2902" />
        <path
           d="m 102.55,7.47607 h -1.073 l 0.707,0.7071 h 1.073 z"
           id="path2903" />
        <path
           d="m 101.477,7.47607 -0.254,0.254 0.707,0.7071 0.254,-0.254 z"
           id="path2904" />
        <path
           d="m 101.223,7.73007 v 1.4478 l 0.707,0.7071 v -1.4478 z"
           id="path2905" />
        <path
           d="m 101.223,9.17787 0.254,0.254 0.707,0.70713 -0.254,-0.25403 z"
           id="path2906" />
        <path
           d="m 101.477,9.43187 h 1.073 l 0.707,0.70713 h -1.073 z"
           id="path2907" />
        <path
           d="m 105.89,9.40012 v -1.8923 l 0.708,0.7071 v 1.89228 z"
           id="path2908" />
        <path
           d="m 105.89,7.50782 0.629,-0.635 0.707,0.7071 -0.628,0.635 z"
           id="path2909" />
        <path
           d="m 106.519,6.87282 h 1.245 l 0.707,0.7071 h -1.245 z"
           id="path2910" />
        <path
           d="m 107.764,6.87282 0.425,0.3683 0.707,0.7071 -0.425,-0.3683 z"
           id="path2911" />
        <path
           d="m 108.189,7.24112 v -1.7399 l 0.707,0.7071 v 1.7399 z"
           id="path2912" />
        <path
           d="m 108.189,5.50122 h 0.718 l 0.707,0.7071 h -0.718 z"
           id="path2913" />
        <path
           d="m 108.907,5.50122 v 4.53388 l 0.707,0.7071 V 6.20832 Z"
           id="path2914" />
        <path
           d="m 108.907,10.0351 h -0.68 l 0.707,0.7071 h 0.68 z"
           id="path2915" />
        <path
           d="M 108.227,10.0351 V 9.51442 l 0.707,0.70708 v 0.5207 z"
           id="path2916" />
        <path
           d="m 108.227,9.51442 -0.52,0.52068 0.707,0.7071 0.52,-0.5207 z"
           id="path2917" />
        <path
           d="m 107.707,10.0351 h -1.188 l 0.707,0.7071 h 1.188 z"
           id="path2918" />
        <path
           d="m 106.519,10.0351 -0.629,-0.63498 0.708,0.70708 0.628,0.635 z"
           id="path2919" />
        <path
           d="m 107.624,9.41917 0.565,-0.5715 0.707,0.7071 -0.565,0.57153 z"
           id="path2920" />
        <path
           d="m 108.189,8.84767 v -0.9271 l 0.707,0.7071 v 0.9271 z"
           id="path2921" />
        <path
           d="m 108.189,7.92057 -0.489,-0.4318 0.707,0.7071 0.489,0.4318 z"
           id="path2922" />
        <path
           d="m 107.7,7.48877 h -0.825 l 0.707,0.7071 h 0.825 z"
           id="path2923" />
        <path
           d="m 106.875,7.48877 -0.267,0.2667 0.707,0.7071 0.267,-0.2667 z"
           id="path2924" />
        <path
           d="m 106.608,7.75547 v 1.397 l 0.707,0.7071 v -1.397 z"
           id="path2925" />
        <path
           d="m 106.608,9.15247 0.267,0.2667 0.707,0.70713 -0.267,-0.26673 z"
           id="path2926" />
        <path
           d="m 106.875,9.41917 h 0.749 l 0.707,0.70713 h -0.749 z"
           id="path2927" />
        <path
           d="m 109.7,6.19337 v -0.3683 l 0.708,0.7071 v 0.3683 z"
           id="path2928" />
        <path
           d="m 109.7,5.82507 0.261,-0.254 0.707,0.7071 -0.26,0.254 z"
           id="path2929" />
        <path
           d="m 109.961,5.57107 h 0.387 l 0.707,0.7071 h -0.387 z"
           id="path2930" />
        <path
           d="m 110.348,5.57107 0.261,0.254 0.707,0.7071 -0.261,-0.254 z"
           id="path2931" />
        <path
           d="m 110.609,5.82507 v 0.3683 l 0.707,0.7071 v -0.3683 z"
           id="path2932" />
        <path
           d="m 110.609,6.19337 -0.261,0.254 0.707,0.7071 0.261,-0.254 z"
           id="path2933" />
        <path
           d="m 110.348,6.44737 h -0.387 l 0.707,0.7071 h 0.387 z"
           id="path2934" />
        <path
           d="m 109.961,6.44737 -0.261,-0.254 0.708,0.7071 0.26,0.254 z"
           id="path2935" />
        <path
           d="m 109.796,6.87282 h 0.717 l 0.707,0.7071 h -0.717 z"
           id="path2936" />
        <path
           d="m 110.513,6.87282 v 3.16228 l 0.707,0.7071 V 7.57992 Z"
           id="path2937" />
        <path
           d="m 110.513,10.0351 h -0.717 l 0.707,0.7071 h 0.717 z"
           id="path2938" />
        <path
           d="M 109.796,10.0351 V 6.87282 l 0.707,0.7071 v 3.16228 z"
           id="path2939" />
        <path
           d="m 111.021,6.87282 h 0.743 l 0.707,0.7071 h -0.743 z"
           id="path2940" />
        <path
           d="m 111.764,6.87282 0.8,2.36855 0.707,0.7071 -0.8,-2.36855 z"
           id="path2941" />
        <path
           d="m 112.564,9.24137 h 0.026 l 0.707,0.7071 h -0.026 z"
           id="path2942" />
        <path
           d="m 112.59,9.24137 0.806,-2.36855 0.707,0.7071 -0.806,2.36855 z"
           id="path2943" />
        <path
           d="m 113.396,6.87282 h 0.743 l 0.707,0.7071 h -0.743 z"
           id="path2944" />
        <path
           d="m 114.139,6.87282 -1.2,3.16228 0.707,0.7071 1.2,-3.16228 z"
           id="path2945" />
        <path
           d="m 112.939,10.0351 h -0.724 l 0.707,0.7071 h 0.724 z"
           id="path2946" />
        <path
           d="m 112.215,10.0351 -1.194,-3.16228 0.707,0.7071 1.194,3.16228 z"
           id="path2947" />
        <path
           d="M 114.457,9.40647 V 7.50782 l 0.707,0.7071 v 1.89868 z"
           id="path2948" />
        <path
           d="m 114.457,7.50782 0.628,-0.635 0.707,0.7071 -0.628,0.635 z"
           id="path2949" />
        <path
           d="m 115.085,6.87282 h 1.721 l 0.707,0.7071 h -1.721 z"
           id="path2950" />
        <path
           d="m 116.806,6.87282 0.641,0.635 0.708,0.7071 -0.642,-0.635 z"
           id="path2951" />
        <path
           d="m 117.447,7.50782 v 1.1811 l 0.708,0.7071 v -1.1811 z"
           id="path2952" />
        <path
           d="m 117.447,8.68892 h -2.273 l 0.707,0.7071 h 2.274 z"
           id="path2953" />
        <path
           d="m 115.174,8.68892 v 0.508 l 0.707,0.7071 v -0.508 z"
           id="path2954" />
        <path
           d="m 115.174,9.19692 0.241,0.2413 0.708,0.70708 -0.242,-0.24128 z"
           id="path2955" />
        <path
           d="m 115.415,9.43822 h 1.086 l 0.707,0.70708 h -1.085 z"
           id="path2956" />
        <path
           d="m 116.501,9.43822 0.229,-0.23495 0.707,0.7071 -0.229,0.23493 z"
           id="path2957" />
        <path
           d="m 116.73,9.20327 v -0.1905 l 0.707,0.7071 v 0.1905 z"
           id="path2958" />
        <path
           d="m 116.73,9.01277 h 0.711 l 0.707,0.7071 h -0.711 z"
           id="path2959" />
        <path
           d="m 117.441,9.01277 v 0.4064 l 0.707,0.70713 V 9.71987 Z"
           id="path2960" />
        <path
           d="m 117.441,9.41917 -0.616,0.61593 0.707,0.7071 0.616,-0.6159 z"
           id="path2961" />
        <path
           d="m 116.825,10.0351 h -1.746 l 0.707,0.7071 h 1.746 z"
           id="path2962" />
        <path
           d="m 115.079,10.0351 -0.622,-0.62863 0.707,0.70713 0.622,0.6286 z"
           id="path2963" />
        <path
           d="M 116.73,8.16187 V 7.72372 l 0.707,0.7071 v 0.43815 z"
           id="path2964" />
        <path
           d="m 116.73,7.72372 -0.248,-0.254 0.707,0.7071 0.248,0.254 z"
           id="path2965" />
        <path
           d="m 116.482,7.46972 h -1.06 l 0.707,0.7071 h 1.06 z"
           id="path2966" />
        <path
           d="m 115.422,7.46972 -0.248,0.254 0.707,0.7071 0.248,-0.254 z"
           id="path2967" />
        <path
           d="m 115.174,7.72372 v 0.43815 l 0.707,0.7071 V 8.43082 Z"
           id="path2968" />
        <path
           d="m 115.174,8.16187 h 1.556 l 0.707,0.7071 h -1.556 z"
           id="path2969" />
        <path
           d="m 118.178,6.87282 h 0.666 l 0.708,0.7071 h -0.667 z"
           id="path2970" />
        <path
           d="m 118.844,6.87282 v 0.53975 l 0.708,0.7071 V 7.57992 Z"
           id="path2971" />
        <path
           d="m 118.844,7.41257 0.527,-0.53975 0.708,0.7071 -0.527,0.53975 z"
           id="path2972" />
        <path
           d="m 119.371,6.87282 h 0.877 l 0.707,0.7071 h -0.876 z"
           id="path2973" />
        <path
           d="m 120.248,6.87282 v 0.61595 l 0.707,0.7071 V 7.57992 Z"
           id="path2974" />
        <path
           d="m 120.248,7.48877 h -0.718 l 0.707,0.7071 h 0.718 z"
           id="path2975" />
        <path
           d="m 119.53,7.48877 -0.635,0.6477 0.707,0.7071 0.635,-0.6477 z"
           id="path2976" />
        <path
           d="m 118.895,8.13647 v 1.89863 l 0.707,0.7071 V 8.84357 Z"
           id="path2977" />
        <path
           d="m 118.895,10.0351 h -0.717 l 0.707,0.7071 h 0.717 z"
           id="path2978" />
        <path
           d="M 118.178,10.0351 V 6.87282 l 0.707,0.7071 v 3.16228 z"
           id="path2979" />
        <path
           d="M 121.01,9.40647 V 7.48242 l 0.707,0.7071 v 1.92408 z"
           id="path2980" />
        <path
           d="m 121.01,7.48242 h -0.572 l 0.707,0.7071 h 0.572 z"
           id="path2981" />
        <path
           d="m 120.438,7.48242 v -0.6096 l 0.707,0.7071 v 0.6096 z"
           id="path2982" />
        <path
           d="m 120.438,6.87282 h 0.584 l 0.708,0.7071 h -0.585 z"
           id="path2983" />
        <path
           d="m 121.022,6.87282 v -1.0287 l 0.708,0.7071 v 1.0287 z"
           id="path2984" />
        <path
           d="m 121.022,5.84412 h 0.705 l 0.707,0.7071 h -0.704 z"
           id="path2985" />
        <path
           d="m 121.727,5.84412 v 1.0287 l 0.707,0.7071 v -1.0287 z"
           id="path2986" />
        <path
           d="m 121.727,6.87282 h 0.972 l 0.707,0.7071 h -0.972 z"
           id="path2987" />
        <path
           d="m 122.699,6.87282 v 0.6096 l 0.707,0.7071 v -0.6096 z"
           id="path2988" />
        <path
           d="m 122.699,7.48242 h -0.972 l 0.707,0.7071 h 0.972 z"
           id="path2989" />
        <path
           d="m 121.727,7.48242 v 1.69545 l 0.707,0.7071 V 8.18952 Z"
           id="path2990" />
        <path
           d="m 121.727,9.17787 0.248,0.24765 0.707,0.70708 -0.248,-0.24763 z"
           id="path2991" />
        <path
           d="m 121.975,9.42552 h 0.724 l 0.707,0.70708 h -0.724 z"
           id="path2992" />
        <path
           d="m 122.699,9.42552 v 0.60958 l 0.707,0.7071 v -0.6096 z"
           id="path2993" />
        <path
           d="m 122.699,10.0351 h -1.061 l 0.708,0.7071 h 1.06 z"
           id="path2994" />
        <path
           d="m 121.638,10.0351 -0.628,-0.62863 0.707,0.70713 0.629,0.6286 z"
           id="path2995" />
        <path
           d="m 123.27,6.19337 v -0.3683 l 0.707,0.7071 v 0.3683 z"
           id="path2996" />
        <path
           d="m 123.27,5.82507 0.261,-0.254 0.707,0.7071 -0.261,0.254 z"
           id="path2997" />
        <path
           d="m 123.531,5.57107 h 0.387 l 0.707,0.7071 h -0.387 z"
           id="path2998" />
        <path
           d="m 123.918,5.57107 0.26,0.254 0.708,0.7071 -0.261,-0.254 z"
           id="path2999" />
        <path
           d="m 124.178,5.82507 v 0.3683 l 0.708,0.7071 v -0.3683 z"
           id="path3000" />
        <path
           d="m 124.178,6.19337 -0.26,0.254 0.707,0.7071 0.261,-0.254 z"
           id="path3001" />
        <path
           d="m 123.918,6.44737 h -0.387 l 0.707,0.7071 h 0.387 z"
           id="path3002" />
        <path
           d="m 123.531,6.44737 -0.261,-0.254 0.707,0.7071 0.261,0.254 z"
           id="path3003" />
        <path
           d="m 123.366,6.87282 h 0.717 l 0.707,0.7071 h -0.717 z"
           id="path3004" />
        <path
           d="m 124.083,6.87282 v 3.16228 l 0.707,0.7071 V 7.57992 Z"
           id="path3005" />
        <path
           d="m 124.083,10.0351 h -0.717 l 0.707,0.7071 h 0.717 z"
           id="path3006" />
        <path
           d="M 123.366,10.0351 V 6.87282 l 0.707,0.7071 v 3.16228 z"
           id="path3007" />
        <path
           d="m 124.909,9.40012 v -1.8923 l 0.707,0.7071 v 1.89228 z"
           id="path3008" />
        <path
           d="m 124.909,7.50782 0.628,-0.635 0.707,0.7071 -0.628,0.635 z"
           id="path3009" />
        <path
           d="m 125.537,6.87282 h 1.245 l 0.707,0.7071 h -1.245 z"
           id="path3010" />
        <path
           d="m 126.782,6.87282 0.425,0.3683 0.708,0.7071 -0.426,-0.3683 z"
           id="path3011" />
        <path
           d="m 127.207,7.24112 v -1.7399 l 0.708,0.7071 v 1.7399 z"
           id="path3012" />
        <path
           d="m 127.207,5.50122 h 0.718 l 0.707,0.7071 h -0.717 z"
           id="path3013" />
        <path
           d="m 127.925,5.50122 v 4.53388 l 0.707,0.7071 V 6.20832 Z"
           id="path3014" />
        <path
           d="m 127.925,10.0351 h -0.679 l 0.707,0.7071 h 0.679 z"
           id="path3015" />
        <path
           d="M 127.246,10.0351 V 9.51442 l 0.707,0.70708 v 0.5207 z"
           id="path3016" />
        <path
           d="m 127.246,9.51442 -0.521,0.52068 0.707,0.7071 0.521,-0.5207 z"
           id="path3017" />
        <path
           d="m 126.725,10.0351 h -1.188 l 0.707,0.7071 h 1.188 z"
           id="path3018" />
        <path
           d="m 125.537,10.0351 -0.628,-0.63498 0.707,0.70708 0.628,0.635 z"
           id="path3019" />
        <path
           d="m 126.642,9.41917 0.565,-0.5715 0.708,0.7071 -0.566,0.57153 z"
           id="path3020" />
        <path
           d="m 127.207,8.84767 v -0.9271 l 0.708,0.7071 v 0.9271 z"
           id="path3021" />
        <path
           d="m 127.207,7.92057 -0.489,-0.4318 0.708,0.7071 0.489,0.4318 z"
           id="path3022" />
        <path
           d="m 126.718,7.48877 h -0.825 l 0.707,0.7071 h 0.826 z"
           id="path3023" />
        <path
           d="m 125.893,7.48877 -0.267,0.2667 0.707,0.7071 0.267,-0.2667 z"
           id="path3024" />
        <path
           d="m 125.626,7.75547 v 1.397 l 0.707,0.7071 v -1.397 z"
           id="path3025" />
        <path
           d="m 125.626,9.15247 0.267,0.2667 0.707,0.70713 -0.267,-0.26673 z"
           id="path3026" />
        <path
           d="m 125.893,9.41917 h 0.749 l 0.707,0.70713 H 126.6 Z"
           id="path3027" />
        <path
           d="m 128.687,9.40012 v -1.8923 l 0.707,0.7071 v 1.89228 z"
           id="path3028" />
        <path
           d="m 128.687,7.50782 0.629,-0.635 0.707,0.7071 -0.629,0.635 z"
           id="path3029" />
        <path
           d="m 129.316,6.87282 h 1.752 l 0.707,0.7071 h -1.752 z"
           id="path3030" />
        <path
           d="m 131.068,6.87282 0.635,0.635 0.707,0.7071 -0.635,-0.635 z"
           id="path3031" />
        <path
           d="m 131.703,7.50782 v 1.8923 l 0.707,0.70708 V 8.21492 Z"
           id="path3032" />
        <path
           d="m 131.703,9.40012 -0.635,0.63498 0.707,0.7071 0.635,-0.635 z"
           id="path3033" />
        <path
           d="m 131.068,10.0351 h -1.752 l 0.707,0.7071 h 1.752 z"
           id="path3034" />
        <path
           d="m 129.316,10.0351 -0.629,-0.63498 0.707,0.70708 0.629,0.635 z"
           id="path3035" />
        <path
           d="m 130.732,9.43187 0.254,-0.254 0.707,0.7071 -0.254,0.25403 z"
           id="path3036" />
        <path
           d="m 130.986,9.17787 v -1.4478 l 0.707,0.7071 v 1.4478 z"
           id="path3037" />
        <path
           d="m 130.986,7.73007 -0.254,-0.254 0.707,0.7071 0.254,0.254 z"
           id="path3038" />
        <path
           d="m 130.732,7.47607 h -1.074 l 0.708,0.7071 h 1.073 z"
           id="path3039" />
        <path
           d="m 129.658,7.47607 -0.254,0.254 0.708,0.7071 0.254,-0.254 z"
           id="path3040" />
        <path
           d="m 129.404,7.73007 v 1.4478 l 0.708,0.7071 v -1.4478 z"
           id="path3041" />
        <path
           d="m 129.404,9.17787 0.254,0.254 0.708,0.70713 -0.254,-0.25403 z"
           id="path3042" />
        <path
           d="m 129.658,9.43187 h 1.074 l 0.707,0.70713 h -1.073 z"
           id="path3043" />
      </g>
      <path
         style="font-weight:600;font-size:6.35px;font-family:'Chakra Petch';-inkscape-font-specification:'Chakra Petch Semi-Bold';text-align:center;text-anchor:middle;fill:#ffffff;stroke:#000000;stroke-width:0.264583"
         d="m 5.3763637,5.5901163 h 0.6985 l 1.60655,4.4449997 h -0.7493 l -0.381,-1.0540998 H 4.8937638 l -0.381,1.0540998 h -0.7493 z m 1.0033,2.7749499 -0.65405,-1.8796 h -0.0127 l -0.64135,1.8796 z m 1.7779944,-1.49225 H 8.824408 v 0.4953 l 0.50165,-0.4953 h 1.21285 l 0.635,0.635 v 1.8923 l -0.635,0.6349998 h -1.2192 L 8.875208,9.6604662 V 11.381316 H 8.1576581 Z m 2.0446999,2.54635 0.254,-0.24765 v -1.4351 l -0.254,-0.24765 h -0.762 l -0.56515,0.56515 v 0.88265 l 0.5334,0.4826 z m 1.733545,-2.54635 h 0.66675 v 0.53975 l 0.52705,-0.53975 h 0.8763 v 0.61595 h -0.71755 l -0.635,0.6477 v 1.8986498 h -0.71755 z m 2.324098,2.53365 v -1.89865 l 0.62865,-0.635 h 1.72085 l 0.64135,0.635 v 1.1811 h -2.2733 v 0.508 l 0.2413,0.2413 h 1.08585 l 0.2286,-0.23495 v -0.1905 h 0.7112 v 0.4064 l -0.61595,0.6159498 h -1.74625 z m 2.2733,-1.2446 v -0.43815 l -0.24765,-0.254 h -1.06045 l -0.24765,0.254 v 0.43815 z m 1.4478,-1.28905 h 0.66675 v 0.57785 l 0.57785,-0.57785 h 1.0033 l 0.66675,0.66675 v 2.4955498 h -0.71755 V 7.7364162 l -0.24765,-0.24765 h -0.5715 l -0.6604,0.66675 v 1.8795998 h -0.71755 z m 3.644899,2.5273 v -1.8923 l 0.62865,-0.635 h 1.2446 l 0.42545,0.3683 V 5.5012163 h 0.71755 V 10.035116 H 23.9628 V 9.5144162 l -0.5207,0.5206998 h -1.18745 z m 1.73355,0.01905 0.56515,-0.5715 v -0.9271 l -0.48895,-0.4318 h -0.8255 l -0.2667,0.2667 v 1.397 l 0.2667,0.2667 z m 2.044694,-0.0127 v -1.89865 l 0.62865,-0.635 h 1.72085 l 0.64135,0.635 v 1.1811 h -2.2733 v 0.508 l 0.2413,0.2413 h 1.08585 l 0.2286,-0.23495 v -0.1905 h 0.7112 v 0.4064 l -0.61595,0.6159498 h -1.74625 z m 2.2733,-1.2446 v -0.43815 l -0.24765,-0.254 h -1.06045 l -0.24765,0.254 v 0.43815 z m 1.447802,-1.28905 h 0.66675 v 0.57785 l 0.57785,-0.57785 h 1.0033 l 0.66675,0.66675 v 2.4955498 h -0.71755 V 7.7364162 l -0.24765,-0.24765 h -0.5715 l -0.6604,0.66675 v 1.8795998 h -0.71755 z m 3.644897,2.5273 v -1.8923 l 0.62865,-0.635 h 1.2446 l 0.42545,0.3683 V 5.5012163 h 0.71755 v 4.5338997 h -0.67945 V 9.5144162 l -0.5207,0.5206998 h -1.18745 z m 1.73355,0.01905 0.56515,-0.5715 v -0.9271 l -0.48895,-0.4318 h -0.8255 l -0.2667,0.2667 v 1.397 l 0.2667,0.2667 z m 2.044696,-0.01905 v -1.8923 l 0.62865,-0.635 h 1.7526 l 0.635,0.635 v 1.8923 l -0.635,0.6349998 h -1.7526 z m 2.0447,0.03175 0.254,-0.254 v -1.4478 l -0.254,-0.254 h -1.07315 l -0.254,0.254 v 1.4478 l 0.254,0.254 z m 3.435346,-3.8417499 h 2.7051 l 0.6477,0.65405 v 1.5112999 l -0.65405,0.6604 h -1.96215 v 1.6192498 h -0.7366 z m 2.3749,2.2034499 0.254,-0.254 v -1.07315 l -0.254,-0.2539999 h -1.6383 v 1.5811499 z m 4.470404,-0.92075 v 3.9115998 l -0.65405,0.6477 H 46.60689 l -0.5588,-0.55245 v -0.4191 h 0.71755 v 0.20955 l 0.1524,0.15875 h 0.990599 l 0.24765,-0.254 V 9.4953662 L 47.62289,10.035116 h -1.02235 l -0.6477,-0.6540498 v -2.50825 h 0.71755 v 2.2987 l 0.24765,0.24765 h 0.57785 l 0.660399,-0.6858 v -1.86055 z m 1.111245,2.53365 v -1.92405 h -0.5715 v -0.6096 h 0.5842 V 5.8441163 h 0.70485 v 1.0286999 h 0.97155 v 0.6096 h -0.97155 v 1.69545 l 0.24765,0.24765 h 0.7239 v 0.6095998 h -1.06045 z m 2.292348,-3.9052499 h 0.71755 v 1.9176999 l 0.5461,-0.5461 h 0.99695 l 0.66675,0.66675 v 2.4955498 h -0.71755 V 7.7364162 l -0.24765,-0.24765 h -0.5842 l -0.6604,0.66675 v 1.8795998 h -0.71755 z m 3.657604,3.8988999 v -1.8923 l 0.62865,-0.635 h 1.7526 l 0.635,0.635 v 1.8923 l -0.635,0.6349998 h -1.7526 z m 2.0447,0.03175 0.254,-0.254 v -1.4478 l -0.254,-0.254 h -1.07315 l -0.254,0.254 v 1.4478 l 0.254,0.254 z m 1.733545,-2.55905 h 0.66675 v 0.57785 l 0.57785,-0.57785 h 1.0033 l 0.66675,0.66675 v 2.4955498 h -0.71755 V 7.7364162 l -0.24765,-0.24765 h -0.5715 l -0.6604,0.66675 v 1.8795998 h -0.71755 z m 5.378448,0 h 0.66675 v 0.57785 l 0.57785,-0.57785 h 1.0033 l 0.66675,0.66675 v 2.4955498 h -0.71755 V 7.7364162 l -0.24765,-0.24765 h -0.5715 l -0.6604,0.66675 v 1.8795998 h -0.71755 z m 3.676651,2.52095 v -2.52095 h 0.71755 v 2.2987 l 0.24765,0.24765 h 0.55245 l 0.6731,-0.6731 v -1.87325 h 0.71755 V 10.035116 H 71.00993 V 9.4509162 l -0.59055,0.5841998 h -1.00965 z m 3.733799,-2.52095 h 0.66675 v 0.57785 l 0.57785,-0.57785 h 1.0033 l 0.66675,0.66675 v 2.4955498 h -0.71755 V 7.7364162 l -0.24765,-0.24765 h -0.5715 l -0.6604,0.66675 v 1.8795998 h -0.71755 z m 3.644897,2.53365 v -1.905 l 0.6223,-0.62865 h 1.67005 l 0.62865,0.635 v 0.5207 h -0.71755 v -0.2921 l -0.254,-0.24765 h -0.9779 l -0.254,0.24765 v 1.4351 l 0.254,0.24765 h 0.9779 l 0.254,-0.24765 v -0.2921 h 0.71755 v 0.5207 l -0.62865,0.6349998 h -1.67005 z m 3.460743,0.0635 v -0.7493 l 0.56515,-0.5588 h 1.63195 v -0.4699 l -0.23495,-0.23495 h -0.99695 l -0.23495,0.23495 v 0.2032 h -0.70485 v -0.3683 l 0.6477,-0.65405 h 1.58115 l 0.6477,0.65405 v 2.5082498 h -0.65405 V 9.5461662 l -0.508,0.4889498 h -1.17475 z m 1.67005,0 0.52705,-0.508 v -0.2667 h -1.28905 l -0.2032,0.19685 v 0.38735 l 0.1905,0.1905 z m 3.98145,-1.98755 h -0.5715 v -0.6096 h 0.5715 V 6.2187663 l 0.6096,-0.6096 h 1.08585 v 0.5969 h -0.7747 l -0.2159,0.20955 v 0.4571999 h 0.9906 v 0.6096 h -0.9779 v 2.5526998 h -0.71755 z m 2.012948,1.9177 v -1.8923 l 0.62865,-0.635 h 1.7526 l 0.635,0.635 v 1.8923 l -0.635,0.6349998 h -1.7526 z m 2.0447,0.03175 0.254,-0.254 v -1.4478 l -0.254,-0.254 h -1.07315 l -0.254,0.254 v 1.4478 l 0.254,0.254 z m 1.701794,-3.2384999 v -0.3683 l 0.26035,-0.254 h 0.38735 l 0.26035,0.254 v 0.3683 l -0.26035,0.2539999 h -0.38735 z m 0.09525,0.6794499 h 0.71755 v 3.1622998 h -0.71755 z m 3.562361,2.53365 v -1.92405 h -0.5715 v -0.6096 h 0.5842 V 5.8441163 h 0.70485 v 1.0286999 h 0.97155 v 0.6096 h -0.97155 v 1.69545 l 0.24765,0.24765 h 0.7239 v 0.6095998 h -1.06045 z m 2.197102,0.0635 v -0.7493 l 0.56515,-0.5588 h 1.63195 v -0.4699 l -0.23495,-0.23495 h -0.99695 l -0.23495,0.23495 v 0.2032 h -0.70485 v -0.3683 l 0.6477,-0.65405 h 1.58115 l 0.6477,0.65405 v 2.5082498 h -0.65405 V 9.5461662 l -0.508,0.4889498 h -1.17475 z m 1.67005,0 0.52705,-0.508 v -0.2667 h -1.28905 l -0.2032,0.19685 v 0.38735 l 0.1905,0.1905 z m -0.45085,-3.3146999 h -0.127 l -0.09525,0.0889 v 0.1968499 l -0.5334,0.00635 V 6.0473163 l 0.4064,-0.40005 h 0.48895 l 0.4064,0.3302 h 0.13335 l 0.0889,-0.0889 v -0.2032 h 0.5334 v 0.3937 l -0.4064,0.4063999 h -0.48895 z m 2.412996,3.2448499 v -1.8923 l 0.62865,-0.635 h 1.7526 l 0.635,0.635 v 1.8923 l -0.635,0.6349998 h -1.7526 z m 2.0447,0.03175 0.254,-0.254 v -1.4478 l -0.254,-0.254 h -1.07315 l -0.254,0.254 v 1.4478 l 0.254,0.254 z m 3.34009,-0.03175 v -1.8923 l 0.62865,-0.635 h 1.2446 l 0.42545,0.3683 V 5.5012163 h 0.71755 v 4.5338997 h -0.67945 V 9.5144162 l -0.5207,0.5206998 h -1.18745 z m 1.73355,0.01905 0.56515,-0.5715 v -0.9271 l -0.48895,-0.4318 h -0.8255 l -0.2667,0.2667 v 1.397 l 0.2667,0.2667 z m 2.07645,-3.2257999 v -0.3683 l 0.26035,-0.254 h 0.38735 l 0.26035,0.254 v 0.3683 l -0.26035,0.2539999 h -0.38735 z m 0.0952,0.6794499 h 0.71755 v 3.1622998 h -0.71755 z m 1.22555,0 h 0.74295 l 0.8001,2.36855 h 0.0254 l 0.80645,-2.36855 h 0.74295 l -1.20015,3.1622998 h -0.7239 z m 3.43535,2.53365 v -1.89865 l 0.62865,-0.635 h 1.72085 l 0.64135,0.635 v 1.1811 h -2.2733 v 0.508 l 0.2413,0.2413 h 1.08585 l 0.2286,-0.23495 v -0.1905 h 0.7112 v 0.4064 l -0.61595,0.6159498 h -1.74625 z m 2.2733,-1.2446 v -0.43815 l -0.24765,-0.254 h -1.06045 l -0.24765,0.254 v 0.43815 z m 1.4478,-1.28905 h 0.66675 v 0.53975 l 0.52705,-0.53975 h 0.8763 v 0.61595 h -0.71755 l -0.635,0.6477 v 1.8986498 h -0.71755 z m 2.8321,2.53365 v -1.92405 h -0.5715 v -0.6096 h 0.5842 V 5.8441163 h 0.70485 v 1.0286999 h 0.97155 v 0.6096 h -0.97155 v 1.69545 l 0.24765,0.24765 h 0.7239 v 0.6095998 h -1.06045 z m 2.26059,-3.2130999 v -0.3683 l 0.26035,-0.254 h 0.38735 l 0.26035,0.254 v 0.3683 l -0.26035,0.2539999 h -0.38735 z m 0.0953,0.6794499 h 0.71755 v 3.1622998 h -0.71755 z m 1.54306,2.5273 v -1.8923 l 0.62865,-0.635 h 1.2446 l 0.42545,0.3683 V 5.5012163 h 0.71755 v 4.5338997 h -0.67945 V 9.5144162 l -0.5207,0.5206998 h -1.18745 z m 1.73355,0.01905 0.56515,-0.5715 v -0.9271 l -0.48895,-0.4318 h -0.8255 l -0.2667,0.2667 v 1.397 l 0.2667,0.2667 z m 2.04469,-0.01905 v -1.8923 l 0.62865,-0.635 h 1.7526 l 0.635,0.635 v 1.8923 l -0.635,0.6349998 h -1.7526 z m 2.0447,0.03175 0.254,-0.254 v -1.4478 l -0.254,-0.254 h -1.07315 l -0.254,0.254 v 1.4478 l 0.254,0.254 z"
         id="text1"
         aria-label="Aprendendo Python nunca foi to divertido" />
    </g>
  </g>
</svg>
